<?xml version="1.0" encoding="UTF-8"?>
<!DOCTYPE svg PUBLIC "-//W3C//DTD SVG 1.1//EN" "http://www.w3.org/Graphics/SVG/1.1/DTD/svg11.dtd">
<svg xmlns="http://www.w3.org/2000/svg" version="1.1" width="66px" height="60px" style="shape-rendering:geometricPrecision; text-rendering:geometricPrecision; image-rendering:optimizeQuality; fill-rule:evenodd; clip-rule:evenodd" xmlns:xlink="http://www.w3.org/1999/xlink">
<g><path style="opacity:0.5" fill="#e2e5e9" d="M 6.5,-0.5 C 23.8333,-0.5 41.1667,-0.5 58.5,-0.5C 61.1667,1.5 63.5,3.83333 65.5,6.5C 65.5,21.8333 65.5,37.1667 65.5,52.5C 63.5,55.1667 61.1667,57.5 58.5,59.5C 41.1667,59.5 23.8333,59.5 6.5,59.5C 4.1918,57.5293 1.85847,55.5293 -0.5,53.5C -0.5,37.5 -0.5,21.5 -0.5,5.5C 1.85847,3.47073 4.1918,1.47073 6.5,-0.5 Z"/></g>
<g><path style="opacity:1" fill="#0d0c0c" d="M 7.5,2.5 C 24.5946,2.02854 41.5946,2.52854 58.5,4C 59.6667,5.16667 60.8333,6.33333 62,7.5C 62.9668,22.5931 62.6334,37.5931 61,52.5C 59.786,54.0488 58.286,55.2155 56.5,56C 40.1667,56.6667 23.8333,56.6667 7.5,56C 5.62173,54.4571 4.12173,52.6238 3,50.5C 2.33333,36.1667 2.33333,21.8333 3,7.5C 4.70733,5.96252 6.20733,4.29585 7.5,2.5 Z"/></g>
<g><path style="opacity:1" fill="#2b73ce" d="M 27.5,5.5 C 39.3471,3.85477 44.8471,8.85477 44,20.5C 40.2141,28.1419 34.3807,30.3086 26.5,27C 18.2866,19.4437 18.6199,12.2771 27.5,5.5 Z"/></g>
<g><path style="opacity:1" fill="#f50203" d="M 14.5,30.5 C 25.1423,29.9769 30.309,34.9769 30,45.5C 26.6282,52.4329 21.1282,54.9329 13.5,53C 7.95921,49.1779 6.12588,44.0112 8,37.5C 9.69406,34.6424 11.8607,32.309 14.5,30.5 Z"/></g>
<g><path style="opacity:1" fill="#00ab50" d="M 43.5,30.5 C 54.9186,30.0784 59.7519,35.4118 58,46.5C 53.9139,52.2253 48.4139,54.0586 41.5,52C 36.7886,47.8604 35.2886,42.6938 37,36.5C 39.0627,34.2659 41.2294,32.2659 43.5,30.5 Z"/></g>
</svg>
