<?xml version="1.0" encoding="UTF-8"?>
<!DOCTYPE svg PUBLIC "-//W3C//DTD SVG 1.1//EN" "http://www.w3.org/Graphics/SVG/1.1/DTD/svg11.dtd">
<svg xmlns="http://www.w3.org/2000/svg" version="1.1" width="66px" height="60px" style="shape-rendering:geometricPrecision; text-rendering:geometricPrecision; image-rendering:optimizeQuality; fill-rule:evenodd; clip-rule:evenodd" xmlns:xlink="http://www.w3.org/1999/xlink">
<g><path style="opacity:0.747" fill="#080808" d="M 6.5,-0.5 C 23.8333,-0.5 41.1667,-0.5 58.5,-0.5C 61.1667,1.5 63.5,3.83333 65.5,6.5C 65.5,21.8333 65.5,37.1667 65.5,52.5C 63.5,55.1667 61.1667,57.5 58.5,59.5C 41.1667,59.5 23.8333,59.5 6.5,59.5C 4.1918,57.5293 1.85847,55.5293 -0.5,53.5C -0.5,37.5 -0.5,21.5 -0.5,5.5C 1.85847,3.47073 4.1918,1.47073 6.5,-0.5 Z"/></g>
<g><path style="opacity:1" fill="#f3f3f3" d="M 7.5,2.5 C 24.5946,2.02854 41.5946,2.52854 58.5,4C 59.6667,5.16667 60.8333,6.33333 62,7.5C 62.9668,22.5931 62.6334,37.5931 61,52.5C 59.8333,53.6667 58.6667,54.8333 57.5,56C 40.8333,56.6667 24.1667,56.6667 7.5,56C 5.62173,54.4571 4.12173,52.6238 3,50.5C 2.33333,36.1667 2.33333,21.8333 3,7.5C 4.70733,5.96252 6.20733,4.29585 7.5,2.5 Z"/></g>
<g><path style="opacity:1" fill="#090909" d="M 28.5,4.5 C 42.5506,5.01649 47.0506,11.6832 42,24.5C 36.1928,29.333 30.1928,29.6663 24,25.5C 18.2557,16.8437 19.7557,9.84366 28.5,4.5 Z"/></g>
<g><path style="opacity:1" fill="#9b9b9b" d="M 13.5,30.5 C 25.8441,29.0122 31.3441,34.3456 30,46.5C 26.8771,52.9959 21.7105,55.4959 14.5,54C 7.54657,50.5896 5.04657,45.0896 7,37.5C 8.69406,34.6424 10.8607,32.309 13.5,30.5 Z"/></g>
<g><path style="opacity:1" fill="#a4a4a4" d="M 42.5,30.5 C 54.2749,28.7826 59.7749,33.7826 59,45.5C 55.8583,52.939 50.3583,55.439 42.5,53C 36.0919,49.6772 33.9252,44.5105 36,37.5C 37.6941,34.6424 39.8607,32.309 42.5,30.5 Z"/></g>
<g><path style="opacity:1" fill="#d2d2d2" d="M 43.5,31.5 C 54.0419,30.5394 58.5419,35.2061 57,45.5C 54.3175,51.257 49.8175,53.4237 43.5,52C 34.2138,45.1689 34.2138,38.3355 43.5,31.5 Z"/></g>
</svg>
